<svg version="1.1" id="Layer_1" xmlns="http://www.w3.org/2000/svg" xmlns:xlink="http://www.w3.org/1999/xlink" x="0px" y="0px"
	 width="100%" viewBox="0 0 352 352" enable-background="new 0 0 352 352" xml:space="preserve">
<path fill="#000000" opacity="1.000000" stroke="none" 
	d="
M36.682274,199.999939 
	C36.680527,170.011490 36.638966,140.522980 36.693272,111.034653 
	C36.723831,94.440445 44.557487,82.946114 59.738586,76.351532 
	C93.948494,61.490944 128.162735,46.640148 162.344162,31.714231 
	C174.455460,26.425625 186.477539,26.239475 198.616760,31.556026 
	C233.084732,46.651798 267.528381,61.804581 302.074432,76.719818 
	C317.467651,83.365829 324.991791,95.156380 325.094147,111.468178 
	C325.344940,151.450943 325.328278,191.437057 325.120392,231.420242 
	C325.028198,249.156540 317.473328,262.523499 301.252960,271.055176 
	C267.945557,288.574432 234.938004,306.662750 201.714508,324.342957 
	C187.134735,332.101715 172.517639,331.923950 157.884857,323.887878 
	C125.770584,306.251434 93.739922,288.445221 61.284000,271.455475 
	C44.290989,262.560089 36.295811,249.353821 36.649815,230.488419 
	C36.837330,220.495575 36.682720,210.496307 36.682274,199.999939 
M262.155243,277.607452 
	C273.298065,271.608307 284.263947,265.245728 295.632568,259.710297 
	C307.440552,253.960968 312.486206,244.277344 312.567596,231.969879 
	C312.826538,192.826355 312.697083,153.680023 312.642822,114.534889 
	C312.631348,106.254654 307.500305,102.848297 300.132996,106.356140 
	C267.063843,122.101418 234.006363,137.873184 201.057541,153.867905 
	C191.365616,158.572769 186.429016,166.999084 186.383896,177.650406 
	C186.206039,219.626617 186.280426,261.604065 186.331024,303.580963 
	C186.341980,312.668335 191.259796,315.427338 199.359772,311.103973 
	C220.072601,300.048492 240.784500,288.991211 262.155243,277.607452 
M116.634071,286.797638 
	C131.698929,295.003204 146.732895,303.266235 161.843811,311.386108 
	C167.908493,314.644989 172.855240,311.899506 173.587433,305.096344 
	C173.711670,303.942078 173.648087,302.766144 173.648193,301.600220 
	C173.651794,261.782318 173.547318,221.964005 173.711609,182.146790 
	C173.768127,168.447784 167.567734,158.936203 155.615982,152.993500 
	C124.300774,137.422775 92.928467,121.966736 61.561623,106.500069 
	C53.476063,102.513161 49.241291,105.189644 49.218712,114.301231 
	C49.172882,132.793930 49.197060,151.286819 49.204216,169.779633 
	C49.212471,191.104523 49.074154,212.431213 49.314289,233.753571 
	C49.439720,244.890854 54.148468,253.326736 64.537292,258.700836 
	C81.840500,267.651703 98.837852,277.193787 116.634071,286.797638 
M70.665649,85.262642 
	C69.442558,85.788269 68.203728,86.280510 67.000244,86.847710 
	C65.380394,87.611153 63.429501,88.044083 63.314564,90.401390 
	C63.197433,92.803925 64.759560,93.991173 66.590538,94.957161 
	C68.798820,96.122215 71.023491,97.258354 73.265968,98.356148 
	C102.869530,112.848396 132.440277,127.408493 162.103363,141.777954 
	C173.370224,147.235886 184.953842,147.310349 196.374023,142.126984 
	C228.970169,127.332382 260.974152,111.297249 293.185730,95.697662 
	C295.392670,94.628876 298.272430,93.622810 298.251709,90.741058 
	C298.229889,87.716820 295.136444,87.196587 292.906738,86.226814 
	C260.549713,72.153831 228.109314,58.269188 195.859955,43.954048 
	C185.564117,39.383850 175.965714,39.181339 165.618805,43.792606 
	C134.304245,57.748417 102.799530,71.277542 70.665649,85.262642 
z"/>
</svg>