<svg xmlns="http://www.w3.org/2000/svg" width="150.6" height="172.0" viewBox="0 0 150.6 172.0">
<polygon points="6.00,46.00 15.90,51.71 15.90,63.14 6.00,57.43" fill="#2c73e7" stroke="#1a1a1a" stroke-width="0.5" stroke-linejoin="round"/>
<polygon points="6.00,57.43 15.90,63.14 15.90,74.57 6.00,68.86" fill="#246bdf" stroke="#1a1a1a" stroke-width="0.5" stroke-linejoin="round"/>
<polygon points="6.00,68.86 15.90,74.57 15.90,86.00 6.00,80.29" fill="#1c63d7" stroke="#1a1a1a" stroke-width="0.5" stroke-linejoin="round"/>
<polygon points="6.00,80.29 15.90,86.00 15.90,97.43 6.00,91.71" fill="#145bcf" stroke="#1a1a1a" stroke-width="0.5" stroke-linejoin="round"/>
<polygon points="6.00,91.71 15.90,97.43 15.90,108.86 6.00,103.14" fill="#0c53c7" stroke="#1a1a1a" stroke-width="0.5" stroke-linejoin="round"/>
<polygon points="6.00,103.14 15.90,108.86 15.90,120.29 6.00,114.57" fill="#044bbf" stroke="#1a1a1a" stroke-width="0.5" stroke-linejoin="round"/>
<polygon points="6.00,114.57 15.90,120.29 15.90,131.71 6.00,126.00" fill="#0043b7" stroke="#1a1a1a" stroke-width="0.5" stroke-linejoin="round"/>
<polygon points="15.90,51.71 25.79,57.43 25.79,68.86 15.90,63.14" fill="#2c73e7" stroke="#1a1a1a" stroke-width="0.5" stroke-linejoin="round"/>
<polygon points="15.90,63.14 25.79,68.86 25.79,80.29 15.90,74.57" fill="#246bdf" stroke="#1a1a1a" stroke-width="0.5" stroke-linejoin="round"/>
<polygon points="15.90,74.57 25.79,80.29 25.79,91.71 15.90,86.00" fill="#1c63d7" stroke="#1a1a1a" stroke-width="0.5" stroke-linejoin="round"/>
<polygon points="15.90,86.00 25.79,91.71 25.79,103.14 15.90,97.43" fill="#145bcf" stroke="#1a1a1a" stroke-width="0.5" stroke-linejoin="round"/>
<polygon points="15.90,97.43 25.79,103.14 25.79,114.57 15.90,108.86" fill="#0c53c7" stroke="#1a1a1a" stroke-width="0.5" stroke-linejoin="round"/>
<polygon points="15.90,108.86 25.79,114.57 25.79,126.00 15.90,120.29" fill="#044bbf" stroke="#1a1a1a" stroke-width="0.5" stroke-linejoin="round"/>
<polygon points="15.90,120.29 25.79,126.00 25.79,137.43 15.90,131.71" fill="#0043b7" stroke="#1a1a1a" stroke-width="0.5" stroke-linejoin="round"/>
<polygon points="25.79,57.43 35.69,63.14 35.69,74.57 25.79,68.86" fill="#2c73e7" stroke="#1a1a1a" stroke-width="0.5" stroke-linejoin="round"/>
<polygon points="25.79,68.86 35.69,74.57 35.69,86.00 25.79,80.29" fill="#246bdf" stroke="#1a1a1a" stroke-width="0.5" stroke-linejoin="round"/>
<polygon points="25.79,80.29 35.69,86.00 35.69,97.43 25.79,91.71" fill="#1c63d7" stroke="#1a1a1a" stroke-width="0.5" stroke-linejoin="round"/>
<polygon points="25.79,91.71 35.69,97.43 35.69,108.86 25.79,103.14" fill="#145bcf" stroke="#1a1a1a" stroke-width="0.5" stroke-linejoin="round"/>
<polygon points="25.79,103.14 35.69,108.86 35.69,120.29 25.79,114.57" fill="#0c53c7" stroke="#1a1a1a" stroke-width="0.5" stroke-linejoin="round"/>
<polygon points="25.79,114.57 35.69,120.29 35.69,131.71 25.79,126.00" fill="#044bbf" stroke="#1a1a1a" stroke-width="0.5" stroke-linejoin="round"/>
<polygon points="25.79,126.00 35.69,131.71 35.69,143.14 25.79,137.43" fill="#0043b7" stroke="#1a1a1a" stroke-width="0.5" stroke-linejoin="round"/>
<polygon points="35.69,63.14 45.59,68.86 45.59,80.29 35.69,74.57" fill="#2c73e7" stroke="#1a1a1a" stroke-width="0.5" stroke-linejoin="round"/>
<polygon points="35.69,74.57 45.59,80.29 45.59,91.71 35.69,86.00" fill="#246bdf" stroke="#1a1a1a" stroke-width="0.5" stroke-linejoin="round"/>
<polygon points="35.69,86.00 45.59,91.71 45.59,103.14 35.69,97.43" fill="#1c63d7" stroke="#1a1a1a" stroke-width="0.5" stroke-linejoin="round"/>
<polygon points="35.69,97.43 45.59,103.14 45.59,114.57 35.69,108.86" fill="#145bcf" stroke="#1a1a1a" stroke-width="0.5" stroke-linejoin="round"/>
<polygon points="35.69,108.86 45.59,114.57 45.59,126.00 35.69,120.29" fill="#0c53c7" stroke="#1a1a1a" stroke-width="0.5" stroke-linejoin="round"/>
<polygon points="35.69,120.29 45.59,126.00 45.59,137.43 35.69,131.71" fill="#044bbf" stroke="#1a1a1a" stroke-width="0.5" stroke-linejoin="round"/>
<polygon points="35.69,131.71 45.59,137.43 45.59,148.86 35.69,143.14" fill="#0043b7" stroke="#1a1a1a" stroke-width="0.5" stroke-linejoin="round"/>
<polygon points="45.59,68.86 55.49,74.57 55.49,86.00 45.59,80.29" fill="#2c73e7" stroke="#1a1a1a" stroke-width="0.5" stroke-linejoin="round"/>
<polygon points="45.59,80.29 55.49,86.00 55.49,97.43 45.59,91.71" fill="#246bdf" stroke="#1a1a1a" stroke-width="0.5" stroke-linejoin="round"/>
<polygon points="45.59,91.71 55.49,97.43 55.49,108.86 45.59,103.14" fill="#1c63d7" stroke="#1a1a1a" stroke-width="0.5" stroke-linejoin="round"/>
<polygon points="45.59,103.14 55.49,108.86 55.49,120.29 45.59,114.57" fill="#145bcf" stroke="#1a1a1a" stroke-width="0.5" stroke-linejoin="round"/>
<polygon points="45.59,114.57 55.49,120.29 55.49,131.71 45.59,126.00" fill="#0c53c7" stroke="#1a1a1a" stroke-width="0.5" stroke-linejoin="round"/>
<polygon points="45.59,126.00 55.49,131.71 55.49,143.14 45.59,137.43" fill="#044bbf" stroke="#1a1a1a" stroke-width="0.5" stroke-linejoin="round"/>
<polygon points="45.59,137.43 55.49,143.14 55.49,154.57 45.59,148.86" fill="#0043b7" stroke="#1a1a1a" stroke-width="0.5" stroke-linejoin="round"/>
<polygon points="55.49,74.57 65.38,80.29 65.38,91.71 55.49,86.00" fill="#2c73e7" stroke="#1a1a1a" stroke-width="0.5" stroke-linejoin="round"/>
<polygon points="55.49,86.00 65.38,91.71 65.38,103.14 55.49,97.43" fill="#246bdf" stroke="#1a1a1a" stroke-width="0.5" stroke-linejoin="round"/>
<polygon points="55.49,97.43 65.38,103.14 65.38,114.57 55.49,108.86" fill="#1c63d7" stroke="#1a1a1a" stroke-width="0.5" stroke-linejoin="round"/>
<polygon points="55.49,108.86 65.38,114.57 65.38,126.00 55.49,120.29" fill="#145bcf" stroke="#1a1a1a" stroke-width="0.5" stroke-linejoin="round"/>
<polygon points="55.49,120.29 65.38,126.00 65.38,137.43 55.49,131.71" fill="#0c53c7" stroke="#1a1a1a" stroke-width="0.5" stroke-linejoin="round"/>
<polygon points="55.49,131.71 65.38,137.43 65.38,148.86 55.49,143.14" fill="#044bbf" stroke="#1a1a1a" stroke-width="0.5" stroke-linejoin="round"/>
<polygon points="55.49,143.14 65.38,148.86 65.38,160.29 55.49,154.57" fill="#0043b7" stroke="#1a1a1a" stroke-width="0.5" stroke-linejoin="round"/>
<polygon points="65.38,80.29 75.28,86.00 75.28,97.43 65.38,91.71" fill="#2c73e7" stroke="#1a1a1a" stroke-width="0.5" stroke-linejoin="round"/>
<polygon points="65.38,91.71 75.28,97.43 75.28,108.86 65.38,103.14" fill="#246bdf" stroke="#1a1a1a" stroke-width="0.5" stroke-linejoin="round"/>
<polygon points="65.38,103.14 75.28,108.86 75.28,120.29 65.38,114.57" fill="#1c63d7" stroke="#1a1a1a" stroke-width="0.5" stroke-linejoin="round"/>
<polygon points="65.38,114.57 75.28,120.29 75.28,131.71 65.38,126.00" fill="#145bcf" stroke="#1a1a1a" stroke-width="0.5" stroke-linejoin="round"/>
<polygon points="65.38,126.00 75.28,131.71 75.28,143.14 65.38,137.43" fill="#0c53c7" stroke="#1a1a1a" stroke-width="0.5" stroke-linejoin="round"/>
<polygon points="65.38,137.43 75.28,143.14 75.28,154.57 65.38,148.86" fill="#044bbf" stroke="#1a1a1a" stroke-width="0.5" stroke-linejoin="round"/>
<polygon points="65.38,148.86 75.28,154.57 75.28,166.00 65.38,160.29" fill="#0043b7" stroke="#1a1a1a" stroke-width="0.5" stroke-linejoin="round"/>
<polygon points="144.56,46.00 134.67,51.71 134.67,63.14 144.56,57.43" fill="#ea3f3f" stroke="#1a1a1a" stroke-width="0.5" stroke-linejoin="round"/>
<polygon points="144.56,57.43 134.67,63.14 134.67,74.57 144.56,68.86" fill="#e43939" stroke="#1a1a1a" stroke-width="0.5" stroke-linejoin="round"/>
<polygon points="144.56,68.86 134.67,74.57 134.67,86.00 144.56,80.29" fill="#de3333" stroke="#1a1a1a" stroke-width="0.5" stroke-linejoin="round"/>
<polygon points="144.56,80.29 134.67,86.00 134.67,97.43 144.56,91.71" fill="#d82d2d" stroke="#1a1a1a" stroke-width="0.5" stroke-linejoin="round"/>
<polygon points="144.56,91.71 134.67,97.43 134.67,108.86 144.56,103.14" fill="#d22727" stroke="#1a1a1a" stroke-width="0.5" stroke-linejoin="round"/>
<polygon points="144.56,103.14 134.67,108.86 134.67,120.29 144.56,114.57" fill="#cc2121" stroke="#1a1a1a" stroke-width="0.5" stroke-linejoin="round"/>
<polygon points="144.56,114.57 134.67,120.29 134.67,131.71 144.56,126.00" fill="#c61b1b" stroke="#1a1a1a" stroke-width="0.5" stroke-linejoin="round"/>
<polygon points="134.67,51.71 124.77,57.43 124.77,68.86 134.67,63.14" fill="#ea3f3f" stroke="#1a1a1a" stroke-width="0.5" stroke-linejoin="round"/>
<polygon points="134.67,63.14 124.77,68.86 124.77,80.29 134.67,74.57" fill="#e43939" stroke="#1a1a1a" stroke-width="0.5" stroke-linejoin="round"/>
<polygon points="134.67,74.57 124.77,80.29 124.77,91.71 134.67,86.00" fill="#de3333" stroke="#1a1a1a" stroke-width="0.5" stroke-linejoin="round"/>
<polygon points="134.67,86.00 124.77,91.71 124.77,103.14 134.67,97.43" fill="#d82d2d" stroke="#1a1a1a" stroke-width="0.5" stroke-linejoin="round"/>
<polygon points="134.67,97.43 124.77,103.14 124.77,114.57 134.67,108.86" fill="#d22727" stroke="#1a1a1a" stroke-width="0.5" stroke-linejoin="round"/>
<polygon points="134.67,108.86 124.77,114.57 124.77,126.00 134.67,120.29" fill="#cc2121" stroke="#1a1a1a" stroke-width="0.5" stroke-linejoin="round"/>
<polygon points="134.67,120.29 124.77,126.00 124.77,137.43 134.67,131.71" fill="#c61b1b" stroke="#1a1a1a" stroke-width="0.5" stroke-linejoin="round"/>
<polygon points="124.77,57.43 114.87,63.14 114.87,74.57 124.77,68.86" fill="#ea3f3f" stroke="#1a1a1a" stroke-width="0.5" stroke-linejoin="round"/>
<polygon points="124.77,68.86 114.87,74.57 114.87,86.00 124.77,80.29" fill="#e43939" stroke="#1a1a1a" stroke-width="0.5" stroke-linejoin="round"/>
<polygon points="124.77,80.29 114.87,86.00 114.87,97.43 124.77,91.71" fill="#de3333" stroke="#1a1a1a" stroke-width="0.5" stroke-linejoin="round"/>
<polygon points="124.77,91.71 114.87,97.43 114.87,108.86 124.77,103.14" fill="#d82d2d" stroke="#1a1a1a" stroke-width="0.5" stroke-linejoin="round"/>
<polygon points="124.77,103.14 114.87,108.86 114.87,120.29 124.77,114.57" fill="#d22727" stroke="#1a1a1a" stroke-width="0.5" stroke-linejoin="round"/>
<polygon points="124.77,114.57 114.87,120.29 114.87,131.71 124.77,126.00" fill="#cc2121" stroke="#1a1a1a" stroke-width="0.5" stroke-linejoin="round"/>
<polygon points="124.77,126.00 114.87,131.71 114.87,143.14 124.77,137.43" fill="#c61b1b" stroke="#1a1a1a" stroke-width="0.5" stroke-linejoin="round"/>
<polygon points="114.87,63.14 104.97,68.86 104.97,80.29 114.87,74.57" fill="#ea3f3f" stroke="#1a1a1a" stroke-width="0.5" stroke-linejoin="round"/>
<polygon points="114.87,74.57 104.97,80.29 104.97,91.71 114.87,86.00" fill="#e43939" stroke="#1a1a1a" stroke-width="0.5" stroke-linejoin="round"/>
<polygon points="114.87,86.00 104.97,91.71 104.97,103.14 114.87,97.43" fill="#de3333" stroke="#1a1a1a" stroke-width="0.5" stroke-linejoin="round"/>
<polygon points="114.87,97.43 104.97,103.14 104.97,114.57 114.87,108.86" fill="#d82d2d" stroke="#1a1a1a" stroke-width="0.5" stroke-linejoin="round"/>
<polygon points="114.87,108.86 104.97,114.57 104.97,126.00 114.87,120.29" fill="#d22727" stroke="#1a1a1a" stroke-width="0.5" stroke-linejoin="round"/>
<polygon points="114.87,120.29 104.97,126.00 104.97,137.43 114.87,131.71" fill="#cc2121" stroke="#1a1a1a" stroke-width="0.5" stroke-linejoin="round"/>
<polygon points="114.87,131.71 104.97,137.43 104.97,148.86 114.87,143.14" fill="#c61b1b" stroke="#1a1a1a" stroke-width="0.5" stroke-linejoin="round"/>
<polygon points="104.97,68.86 95.08,74.57 95.08,86.00 104.97,80.29" fill="#ea3f3f" stroke="#1a1a1a" stroke-width="0.5" stroke-linejoin="round"/>
<polygon points="104.97,80.29 95.08,86.00 95.08,97.43 104.97,91.71" fill="#e43939" stroke="#1a1a1a" stroke-width="0.5" stroke-linejoin="round"/>
<polygon points="104.97,91.71 95.08,97.43 95.08,108.86 104.97,103.14" fill="#de3333" stroke="#1a1a1a" stroke-width="0.5" stroke-linejoin="round"/>
<polygon points="104.97,103.14 95.08,108.86 95.08,120.29 104.97,114.57" fill="#d82d2d" stroke="#1a1a1a" stroke-width="0.5" stroke-linejoin="round"/>
<polygon points="104.97,114.57 95.08,120.29 95.08,131.71 104.97,126.00" fill="#d22727" stroke="#1a1a1a" stroke-width="0.5" stroke-linejoin="round"/>
<polygon points="104.97,126.00 95.08,131.71 95.08,143.14 104.97,137.43" fill="#cc2121" stroke="#1a1a1a" stroke-width="0.5" stroke-linejoin="round"/>
<polygon points="104.97,137.43 95.08,143.14 95.08,154.57 104.97,148.86" fill="#c61b1b" stroke="#1a1a1a" stroke-width="0.5" stroke-linejoin="round"/>
<polygon points="95.08,74.57 85.18,80.29 85.18,91.71 95.08,86.00" fill="#ea3f3f" stroke="#1a1a1a" stroke-width="0.5" stroke-linejoin="round"/>
<polygon points="95.08,86.00 85.18,91.71 85.18,103.14 95.08,97.43" fill="#e43939" stroke="#1a1a1a" stroke-width="0.5" stroke-linejoin="round"/>
<polygon points="95.08,97.43 85.18,103.14 85.18,114.57 95.08,108.86" fill="#de3333" stroke="#1a1a1a" stroke-width="0.5" stroke-linejoin="round"/>
<polygon points="95.08,108.86 85.18,114.57 85.18,126.00 95.08,120.29" fill="#d82d2d" stroke="#1a1a1a" stroke-width="0.5" stroke-linejoin="round"/>
<polygon points="95.08,120.29 85.18,126.00 85.18,137.43 95.08,131.71" fill="#d22727" stroke="#1a1a1a" stroke-width="0.5" stroke-linejoin="round"/>
<polygon points="95.08,131.71 85.18,137.43 85.18,148.86 95.08,143.14" fill="#cc2121" stroke="#1a1a1a" stroke-width="0.5" stroke-linejoin="round"/>
<polygon points="95.08,143.14 85.18,148.86 85.18,160.29 95.08,154.57" fill="#c61b1b" stroke="#1a1a1a" stroke-width="0.5" stroke-linejoin="round"/>
<polygon points="85.18,80.29 75.28,86.00 75.28,97.43 85.18,91.71" fill="#ea3f3f" stroke="#1a1a1a" stroke-width="0.5" stroke-linejoin="round"/>
<polygon points="85.18,91.71 75.28,97.43 75.28,108.86 85.18,103.14" fill="#e43939" stroke="#1a1a1a" stroke-width="0.5" stroke-linejoin="round"/>
<polygon points="85.18,103.14 75.28,108.86 75.28,120.29 85.18,114.57" fill="#de3333" stroke="#1a1a1a" stroke-width="0.5" stroke-linejoin="round"/>
<polygon points="85.18,114.57 75.28,120.29 75.28,131.71 85.18,126.00" fill="#d82d2d" stroke="#1a1a1a" stroke-width="0.5" stroke-linejoin="round"/>
<polygon points="85.18,126.00 75.28,131.71 75.28,143.14 85.18,137.43" fill="#d22727" stroke="#1a1a1a" stroke-width="0.5" stroke-linejoin="round"/>
<polygon points="85.18,137.43 75.28,143.14 75.28,154.57 85.18,148.86" fill="#cc2121" stroke="#1a1a1a" stroke-width="0.5" stroke-linejoin="round"/>
<polygon points="85.18,148.86 75.28,154.57 75.28,166.00 85.18,160.29" fill="#c61b1b" stroke="#1a1a1a" stroke-width="0.5" stroke-linejoin="round"/>
<polygon points="75.28,6.00 85.18,11.71 75.28,17.43 65.38,11.71" fill="#F8F8F2" stroke="#1a1a1a" stroke-width="0.5" stroke-linejoin="round"/>
<polygon points="65.38,11.71 75.28,17.43 65.38,23.14 55.49,17.43" fill="#F8F8F2" stroke="#1a1a1a" stroke-width="0.5" stroke-linejoin="round"/>
<polygon points="55.49,17.43 65.38,23.14 55.49,28.86 45.59,23.14" fill="#F8F8F2" stroke="#1a1a1a" stroke-width="0.5" stroke-linejoin="round"/>
<polygon points="45.59,23.14 55.49,28.86 45.59,34.57 35.69,28.86" fill="#F8F8F2" stroke="#1a1a1a" stroke-width="0.5" stroke-linejoin="round"/>
<polygon points="35.69,28.86 45.59,34.57 35.69,40.29 25.79,34.57" fill="#F8F8F2" stroke="#1a1a1a" stroke-width="0.5" stroke-linejoin="round"/>
<polygon points="25.79,34.57 35.69,40.29 25.79,46.00 15.90,40.29" fill="#F8F8F2" stroke="#1a1a1a" stroke-width="0.5" stroke-linejoin="round"/>
<polygon points="15.90,40.29 25.79,46.00 15.90,51.71 6.00,46.00" fill="#F8F8F2" stroke="#1a1a1a" stroke-width="0.5" stroke-linejoin="round"/>
<polygon points="85.18,11.71 95.08,17.43 85.18,23.14 75.28,17.43" fill="#F8F8F2" stroke="#1a1a1a" stroke-width="0.5" stroke-linejoin="round"/>
<polygon points="75.28,17.43 85.18,23.14 75.28,28.86 65.38,23.14" fill="#F8F8F2" stroke="#1a1a1a" stroke-width="0.5" stroke-linejoin="round"/>
<polygon points="65.38,23.14 75.28,28.86 65.38,34.57 55.49,28.86" fill="#F8F8F2" stroke="#1a1a1a" stroke-width="0.5" stroke-linejoin="round"/>
<polygon points="55.49,28.86 65.38,34.57 55.49,40.29 45.59,34.57" fill="#F8F8F2" stroke="#1a1a1a" stroke-width="0.5" stroke-linejoin="round"/>
<polygon points="45.59,34.57 55.49,40.29 45.59,46.00 35.69,40.29" fill="#F8F8F2" stroke="#1a1a1a" stroke-width="0.5" stroke-linejoin="round"/>
<polygon points="35.69,40.29 45.59,46.00 35.69,51.71 25.79,46.00" fill="#F8F8F2" stroke="#1a1a1a" stroke-width="0.5" stroke-linejoin="round"/>
<polygon points="25.79,46.00 35.69,51.71 25.79,57.43 15.90,51.71" fill="#F8F8F2" stroke="#1a1a1a" stroke-width="0.5" stroke-linejoin="round"/>
<polygon points="95.08,17.43 104.97,23.14 95.08,28.86 85.18,23.14" fill="#F8F8F2" stroke="#1a1a1a" stroke-width="0.5" stroke-linejoin="round"/>
<polygon points="85.18,23.14 95.08,28.86 85.18,34.57 75.28,28.86" fill="#F8F8F2" stroke="#1a1a1a" stroke-width="0.5" stroke-linejoin="round"/>
<polygon points="75.28,28.86 85.18,34.57 75.28,40.29 65.38,34.57" fill="#F8F8F2" stroke="#1a1a1a" stroke-width="0.5" stroke-linejoin="round"/>
<polygon points="65.38,34.57 75.28,40.29 65.38,46.00 55.49,40.29" fill="#F8F8F2" stroke="#1a1a1a" stroke-width="0.5" stroke-linejoin="round"/>
<polygon points="55.49,40.29 65.38,46.00 55.49,51.71 45.59,46.00" fill="#F8F8F2" stroke="#1a1a1a" stroke-width="0.5" stroke-linejoin="round"/>
<polygon points="45.59,46.00 55.49,51.71 45.59,57.43 35.69,51.71" fill="#F8F8F2" stroke="#1a1a1a" stroke-width="0.5" stroke-linejoin="round"/>
<polygon points="35.69,51.71 45.59,57.43 35.69,63.14 25.79,57.43" fill="#F8F8F2" stroke="#1a1a1a" stroke-width="0.5" stroke-linejoin="round"/>
<polygon points="104.97,23.14 114.87,28.86 104.97,34.57 95.08,28.86" fill="#F8F8F2" stroke="#1a1a1a" stroke-width="0.5" stroke-linejoin="round"/>
<polygon points="95.08,28.86 104.97,34.57 95.08,40.29 85.18,34.57" fill="#F8F8F2" stroke="#1a1a1a" stroke-width="0.5" stroke-linejoin="round"/>
<polygon points="85.18,34.57 95.08,40.29 85.18,46.00 75.28,40.29" fill="#F8F8F2" stroke="#1a1a1a" stroke-width="0.5" stroke-linejoin="round"/>
<polygon points="75.28,40.29 85.18,46.00 75.28,51.71 65.38,46.00" fill="#F8F8F2" stroke="#1a1a1a" stroke-width="0.5" stroke-linejoin="round"/>
<polygon points="65.38,46.00 75.28,51.71 65.38,57.43 55.49,51.71" fill="#F8F8F2" stroke="#1a1a1a" stroke-width="0.5" stroke-linejoin="round"/>
<polygon points="55.49,51.71 65.38,57.43 55.49,63.14 45.59,57.43" fill="#F8F8F2" stroke="#1a1a1a" stroke-width="0.5" stroke-linejoin="round"/>
<polygon points="45.59,57.43 55.49,63.14 45.59,68.86 35.69,63.14" fill="#F8F8F2" stroke="#1a1a1a" stroke-width="0.5" stroke-linejoin="round"/>
<polygon points="114.87,28.86 124.77,34.57 114.87,40.29 104.97,34.57" fill="#F8F8F2" stroke="#1a1a1a" stroke-width="0.5" stroke-linejoin="round"/>
<polygon points="104.97,34.57 114.87,40.29 104.97,46.00 95.08,40.29" fill="#F8F8F2" stroke="#1a1a1a" stroke-width="0.5" stroke-linejoin="round"/>
<polygon points="95.08,40.29 104.97,46.00 95.08,51.71 85.18,46.00" fill="#F8F8F2" stroke="#1a1a1a" stroke-width="0.5" stroke-linejoin="round"/>
<polygon points="85.18,46.00 95.08,51.71 85.18,57.43 75.28,51.71" fill="#F8F8F2" stroke="#1a1a1a" stroke-width="0.5" stroke-linejoin="round"/>
<polygon points="75.28,51.71 85.18,57.43 75.28,63.14 65.38,57.43" fill="#F8F8F2" stroke="#1a1a1a" stroke-width="0.5" stroke-linejoin="round"/>
<polygon points="65.38,57.43 75.28,63.14 65.38,68.86 55.49,63.14" fill="#F8F8F2" stroke="#1a1a1a" stroke-width="0.5" stroke-linejoin="round"/>
<polygon points="55.49,63.14 65.38,68.86 55.49,74.57 45.59,68.86" fill="#F8F8F2" stroke="#1a1a1a" stroke-width="0.5" stroke-linejoin="round"/>
<polygon points="124.77,34.57 134.67,40.29 124.77,46.00 114.87,40.29" fill="#F8F8F2" stroke="#1a1a1a" stroke-width="0.5" stroke-linejoin="round"/>
<polygon points="114.87,40.29 124.77,46.00 114.87,51.71 104.97,46.00" fill="#F8F8F2" stroke="#1a1a1a" stroke-width="0.5" stroke-linejoin="round"/>
<polygon points="104.97,46.00 114.87,51.71 104.97,57.43 95.08,51.71" fill="#F8F8F2" stroke="#1a1a1a" stroke-width="0.5" stroke-linejoin="round"/>
<polygon points="95.08,51.71 104.97,57.43 95.08,63.14 85.18,57.43" fill="#F8F8F2" stroke="#1a1a1a" stroke-width="0.5" stroke-linejoin="round"/>
<polygon points="85.18,57.43 95.08,63.14 85.18,68.86 75.28,63.14" fill="#F8F8F2" stroke="#1a1a1a" stroke-width="0.5" stroke-linejoin="round"/>
<polygon points="75.28,63.14 85.18,68.86 75.28,74.57 65.38,68.86" fill="#F8F8F2" stroke="#1a1a1a" stroke-width="0.5" stroke-linejoin="round"/>
<polygon points="65.38,68.86 75.28,74.57 65.38,80.29 55.49,74.57" fill="#F8F8F2" stroke="#1a1a1a" stroke-width="0.5" stroke-linejoin="round"/>
<polygon points="134.67,40.29 144.56,46.00 134.67,51.71 124.77,46.00" fill="#F8F8F2" stroke="#1a1a1a" stroke-width="0.5" stroke-linejoin="round"/>
<polygon points="124.77,46.00 134.67,51.71 124.77,57.43 114.87,51.71" fill="#F8F8F2" stroke="#1a1a1a" stroke-width="0.5" stroke-linejoin="round"/>
<polygon points="114.87,51.71 124.77,57.43 114.87,63.14 104.97,57.43" fill="#F8F8F2" stroke="#1a1a1a" stroke-width="0.5" stroke-linejoin="round"/>
<polygon points="104.97,57.43 114.87,63.14 104.97,68.86 95.08,63.14" fill="#F8F8F2" stroke="#1a1a1a" stroke-width="0.5" stroke-linejoin="round"/>
<polygon points="95.08,63.14 104.97,68.86 95.08,74.57 85.18,68.86" fill="#F8F8F2" stroke="#1a1a1a" stroke-width="0.5" stroke-linejoin="round"/>
<polygon points="85.18,68.86 95.08,74.57 85.18,80.29 75.28,74.57" fill="#F8F8F2" stroke="#1a1a1a" stroke-width="0.5" stroke-linejoin="round"/>
<polygon points="75.28,74.57 85.18,80.29 75.28,86.00 65.38,80.29" fill="#F8F8F2" stroke="#1a1a1a" stroke-width="0.5" stroke-linejoin="round"/>
<line x1="75.28" y1="6.00" x2="144.56" y2="46.00" stroke="#1a1a1a" stroke-width="1.0999999999999999" stroke-linecap="round"/>
<line x1="144.56" y1="46.00" x2="75.28" y2="86.00" stroke="#1a1a1a" stroke-width="1.0999999999999999" stroke-linecap="round"/>
<line x1="75.28" y1="6.00" x2="6.00" y2="46.00" stroke="#1a1a1a" stroke-width="1.0999999999999999" stroke-linecap="round"/>
<line x1="144.56" y1="46.00" x2="144.56" y2="126.00" stroke="#1a1a1a" stroke-width="1.0999999999999999" stroke-linecap="round"/>
<line x1="6.00" y1="46.00" x2="6.00" y2="126.00" stroke="#1a1a1a" stroke-width="1.0999999999999999" stroke-linecap="round"/>
<line x1="75.28" y1="86.00" x2="75.28" y2="166.00" stroke="#1a1a1a" stroke-width="1.0999999999999999" stroke-linecap="round"/>
<line x1="75.28" y1="86.00" x2="6.00" y2="46.00" stroke="#1a1a1a" stroke-width="1.0999999999999999" stroke-linecap="round"/>
<line x1="144.56" y1="126.00" x2="75.28" y2="166.00" stroke="#1a1a1a" stroke-width="1.0999999999999999" stroke-linecap="round"/>
<line x1="6.00" y1="126.00" x2="75.28" y2="166.00" stroke="#1a1a1a" stroke-width="1.0999999999999999" stroke-linecap="round"/>
</svg>