<svg xmlns="http://www.w3.org/2000/svg" width="150.6" height="172.0" viewBox="0 0 150.6 172.0">
<polygon points="6.00,46.00 23.32,56.00 23.32,76.00 6.00,66.00" fill="#2c73e7" stroke="#1a1a1a" stroke-width="1.3" stroke-linejoin="round"/>
<polygon points="6.00,66.00 23.32,76.00 23.32,96.00 6.00,86.00" fill="#246bdf" stroke="#1a1a1a" stroke-width="1.3" stroke-linejoin="round"/>
<polygon points="6.00,86.00 23.32,96.00 23.32,116.00 6.00,106.00" fill="#1c63d7" stroke="#1a1a1a" stroke-width="1.3" stroke-linejoin="round"/>
<polygon points="6.00,106.00 23.32,116.00 23.32,136.00 6.00,126.00" fill="#145bcf" stroke="#1a1a1a" stroke-width="1.3" stroke-linejoin="round"/>
<polygon points="23.32,56.00 40.64,66.00 40.64,86.00 23.32,76.00" fill="#2c73e7" stroke="#1a1a1a" stroke-width="1.3" stroke-linejoin="round"/>
<polygon points="23.32,76.00 40.64,86.00 40.64,106.00 23.32,96.00" fill="#246bdf" stroke="#1a1a1a" stroke-width="1.3" stroke-linejoin="round"/>
<polygon points="23.32,96.00 40.64,106.00 40.64,126.00 23.32,116.00" fill="#1c63d7" stroke="#1a1a1a" stroke-width="1.3" stroke-linejoin="round"/>
<polygon points="23.32,116.00 40.64,126.00 40.64,146.00 23.32,136.00" fill="#145bcf" stroke="#1a1a1a" stroke-width="1.3" stroke-linejoin="round"/>
<polygon points="40.64,66.00 57.96,76.00 57.96,96.00 40.64,86.00" fill="#2c73e7" stroke="#1a1a1a" stroke-width="1.3" stroke-linejoin="round"/>
<polygon points="40.64,86.00 57.96,96.00 57.96,116.00 40.64,106.00" fill="#246bdf" stroke="#1a1a1a" stroke-width="1.3" stroke-linejoin="round"/>
<polygon points="40.64,106.00 57.96,116.00 57.96,136.00 40.64,126.00" fill="#1c63d7" stroke="#1a1a1a" stroke-width="1.3" stroke-linejoin="round"/>
<polygon points="40.64,126.00 57.96,136.00 57.96,156.00 40.64,146.00" fill="#145bcf" stroke="#1a1a1a" stroke-width="1.3" stroke-linejoin="round"/>
<polygon points="57.96,76.00 75.28,86.00 75.28,106.00 57.96,96.00" fill="#2c73e7" stroke="#1a1a1a" stroke-width="1.3" stroke-linejoin="round"/>
<polygon points="57.96,96.00 75.28,106.00 75.28,126.00 57.96,116.00" fill="#246bdf" stroke="#1a1a1a" stroke-width="1.3" stroke-linejoin="round"/>
<polygon points="57.96,116.00 75.28,126.00 75.28,146.00 57.96,136.00" fill="#1c63d7" stroke="#1a1a1a" stroke-width="1.3" stroke-linejoin="round"/>
<polygon points="57.96,136.00 75.28,146.00 75.28,166.00 57.96,156.00" fill="#145bcf" stroke="#1a1a1a" stroke-width="1.3" stroke-linejoin="round"/>
<polygon points="144.56,46.00 127.24,56.00 127.24,76.00 144.56,66.00" fill="#ea3f3f" stroke="#1a1a1a" stroke-width="1.3" stroke-linejoin="round"/>
<polygon points="144.56,66.00 127.24,76.00 127.24,96.00 144.56,86.00" fill="#e43939" stroke="#1a1a1a" stroke-width="1.3" stroke-linejoin="round"/>
<polygon points="144.56,86.00 127.24,96.00 127.24,116.00 144.56,106.00" fill="#de3333" stroke="#1a1a1a" stroke-width="1.3" stroke-linejoin="round"/>
<polygon points="144.56,106.00 127.24,116.00 127.24,136.00 144.56,126.00" fill="#d82d2d" stroke="#1a1a1a" stroke-width="1.3" stroke-linejoin="round"/>
<polygon points="127.24,56.00 109.92,66.00 109.92,86.00 127.24,76.00" fill="#ea3f3f" stroke="#1a1a1a" stroke-width="1.3" stroke-linejoin="round"/>
<polygon points="127.24,76.00 109.92,86.00 109.92,106.00 127.24,96.00" fill="#e43939" stroke="#1a1a1a" stroke-width="1.3" stroke-linejoin="round"/>
<polygon points="127.24,96.00 109.92,106.00 109.92,126.00 127.24,116.00" fill="#de3333" stroke="#1a1a1a" stroke-width="1.3" stroke-linejoin="round"/>
<polygon points="127.24,116.00 109.92,126.00 109.92,146.00 127.24,136.00" fill="#d82d2d" stroke="#1a1a1a" stroke-width="1.3" stroke-linejoin="round"/>
<polygon points="109.92,66.00 92.60,76.00 92.60,96.00 109.92,86.00" fill="#ea3f3f" stroke="#1a1a1a" stroke-width="1.3" stroke-linejoin="round"/>
<polygon points="109.92,86.00 92.60,96.00 92.60,116.00 109.92,106.00" fill="#e43939" stroke="#1a1a1a" stroke-width="1.3" stroke-linejoin="round"/>
<polygon points="109.92,106.00 92.60,116.00 92.60,136.00 109.92,126.00" fill="#de3333" stroke="#1a1a1a" stroke-width="1.3" stroke-linejoin="round"/>
<polygon points="109.92,126.00 92.60,136.00 92.60,156.00 109.92,146.00" fill="#d82d2d" stroke="#1a1a1a" stroke-width="1.3" stroke-linejoin="round"/>
<polygon points="92.60,76.00 75.28,86.00 75.28,106.00 92.60,96.00" fill="#ea3f3f" stroke="#1a1a1a" stroke-width="1.3" stroke-linejoin="round"/>
<polygon points="92.60,96.00 75.28,106.00 75.28,126.00 92.60,116.00" fill="#e43939" stroke="#1a1a1a" stroke-width="1.3" stroke-linejoin="round"/>
<polygon points="92.60,116.00 75.28,126.00 75.28,146.00 92.60,136.00" fill="#de3333" stroke="#1a1a1a" stroke-width="1.3" stroke-linejoin="round"/>
<polygon points="92.60,136.00 75.28,146.00 75.28,166.00 92.60,156.00" fill="#d82d2d" stroke="#1a1a1a" stroke-width="1.3" stroke-linejoin="round"/>
<polygon points="75.28,6.00 92.60,16.00 75.28,26.00 57.96,16.00" fill="#F8F8F2" stroke="#1a1a1a" stroke-width="1.3" stroke-linejoin="round"/>
<polygon points="57.96,16.00 75.28,26.00 57.96,36.00 40.64,26.00" fill="#F8F8F2" stroke="#1a1a1a" stroke-width="1.3" stroke-linejoin="round"/>
<polygon points="40.64,26.00 57.96,36.00 40.64,46.00 23.32,36.00" fill="#F8F8F2" stroke="#1a1a1a" stroke-width="1.3" stroke-linejoin="round"/>
<polygon points="23.32,36.00 40.64,46.00 23.32,56.00 6.00,46.00" fill="#F8F8F2" stroke="#1a1a1a" stroke-width="1.3" stroke-linejoin="round"/>
<polygon points="92.60,16.00 109.92,26.00 92.60,36.00 75.28,26.00" fill="#F8F8F2" stroke="#1a1a1a" stroke-width="1.3" stroke-linejoin="round"/>
<polygon points="75.28,26.00 92.60,36.00 75.28,46.00 57.96,36.00" fill="#F8F8F2" stroke="#1a1a1a" stroke-width="1.3" stroke-linejoin="round"/>
<polygon points="57.96,36.00 75.28,46.00 57.96,56.00 40.64,46.00" fill="#F8F8F2" stroke="#1a1a1a" stroke-width="1.3" stroke-linejoin="round"/>
<polygon points="40.64,46.00 57.96,56.00 40.64,66.00 23.32,56.00" fill="#F8F8F2" stroke="#1a1a1a" stroke-width="1.3" stroke-linejoin="round"/>
<polygon points="109.92,26.00 127.24,36.00 109.92,46.00 92.60,36.00" fill="#F8F8F2" stroke="#1a1a1a" stroke-width="1.3" stroke-linejoin="round"/>
<polygon points="92.60,36.00 109.92,46.00 92.60,56.00 75.28,46.00" fill="#F8F8F2" stroke="#1a1a1a" stroke-width="1.3" stroke-linejoin="round"/>
<polygon points="75.28,46.00 92.60,56.00 75.28,66.00 57.96,56.00" fill="#F8F8F2" stroke="#1a1a1a" stroke-width="1.3" stroke-linejoin="round"/>
<polygon points="57.96,56.00 75.28,66.00 57.96,76.00 40.64,66.00" fill="#F8F8F2" stroke="#1a1a1a" stroke-width="1.3" stroke-linejoin="round"/>
<polygon points="127.24,36.00 144.56,46.00 127.24,56.00 109.92,46.00" fill="#F8F8F2" stroke="#1a1a1a" stroke-width="1.3" stroke-linejoin="round"/>
<polygon points="109.92,46.00 127.24,56.00 109.92,66.00 92.60,56.00" fill="#F8F8F2" stroke="#1a1a1a" stroke-width="1.3" stroke-linejoin="round"/>
<polygon points="92.60,56.00 109.92,66.00 92.60,76.00 75.28,66.00" fill="#F8F8F2" stroke="#1a1a1a" stroke-width="1.3" stroke-linejoin="round"/>
<polygon points="75.28,66.00 92.60,76.00 75.28,86.00 57.96,76.00" fill="#F8F8F2" stroke="#1a1a1a" stroke-width="1.3" stroke-linejoin="round"/>
<line x1="75.28" y1="6.00" x2="144.56" y2="46.00" stroke="#1a1a1a" stroke-width="1.7" stroke-linecap="round"/>
<line x1="144.56" y1="46.00" x2="75.28" y2="86.00" stroke="#1a1a1a" stroke-width="1.7" stroke-linecap="round"/>
<line x1="75.28" y1="6.00" x2="6.00" y2="46.00" stroke="#1a1a1a" stroke-width="1.7" stroke-linecap="round"/>
<line x1="144.56" y1="46.00" x2="144.56" y2="126.00" stroke="#1a1a1a" stroke-width="1.7" stroke-linecap="round"/>
<line x1="6.00" y1="46.00" x2="6.00" y2="126.00" stroke="#1a1a1a" stroke-width="1.7" stroke-linecap="round"/>
<line x1="75.28" y1="86.00" x2="75.28" y2="166.00" stroke="#1a1a1a" stroke-width="1.7" stroke-linecap="round"/>
<line x1="75.28" y1="86.00" x2="6.00" y2="46.00" stroke="#1a1a1a" stroke-width="1.7" stroke-linecap="round"/>
<line x1="144.56" y1="126.00" x2="75.28" y2="166.00" stroke="#1a1a1a" stroke-width="1.7" stroke-linecap="round"/>
<line x1="6.00" y1="126.00" x2="75.28" y2="166.00" stroke="#1a1a1a" stroke-width="1.7" stroke-linecap="round"/>
</svg>