<svg xmlns="http://www.w3.org/2000/svg" width="150.6" height="172.0" viewBox="0 0 150.6 172.0">
<polygon points="6.00,46.00 19.86,54.00 19.86,70.00 6.00,62.00" fill="#2c73e7" stroke="#1a1a1a" stroke-width="1.0" stroke-linejoin="round"/>
<polygon points="6.00,62.00 19.86,70.00 19.86,86.00 6.00,78.00" fill="#246bdf" stroke="#1a1a1a" stroke-width="1.0" stroke-linejoin="round"/>
<polygon points="6.00,78.00 19.86,86.00 19.86,102.00 6.00,94.00" fill="#1c63d7" stroke="#1a1a1a" stroke-width="1.0" stroke-linejoin="round"/>
<polygon points="6.00,94.00 19.86,102.00 19.86,118.00 6.00,110.00" fill="#145bcf" stroke="#1a1a1a" stroke-width="1.0" stroke-linejoin="round"/>
<polygon points="6.00,110.00 19.86,118.00 19.86,134.00 6.00,126.00" fill="#0c53c7" stroke="#1a1a1a" stroke-width="1.0" stroke-linejoin="round"/>
<polygon points="19.86,54.00 33.71,62.00 33.71,78.00 19.86,70.00" fill="#2c73e7" stroke="#1a1a1a" stroke-width="1.0" stroke-linejoin="round"/>
<polygon points="19.86,70.00 33.71,78.00 33.71,94.00 19.86,86.00" fill="#246bdf" stroke="#1a1a1a" stroke-width="1.0" stroke-linejoin="round"/>
<polygon points="19.86,86.00 33.71,94.00 33.71,110.00 19.86,102.00" fill="#1c63d7" stroke="#1a1a1a" stroke-width="1.0" stroke-linejoin="round"/>
<polygon points="19.86,102.00 33.71,110.00 33.71,126.00 19.86,118.00" fill="#145bcf" stroke="#1a1a1a" stroke-width="1.0" stroke-linejoin="round"/>
<polygon points="19.86,118.00 33.71,126.00 33.71,142.00 19.86,134.00" fill="#0c53c7" stroke="#1a1a1a" stroke-width="1.0" stroke-linejoin="round"/>
<polygon points="33.71,62.00 47.57,70.00 47.57,86.00 33.71,78.00" fill="#2c73e7" stroke="#1a1a1a" stroke-width="1.0" stroke-linejoin="round"/>
<polygon points="33.71,78.00 47.57,86.00 47.57,102.00 33.71,94.00" fill="#246bdf" stroke="#1a1a1a" stroke-width="1.0" stroke-linejoin="round"/>
<polygon points="33.71,94.00 47.57,102.00 47.57,118.00 33.71,110.00" fill="#1c63d7" stroke="#1a1a1a" stroke-width="1.0" stroke-linejoin="round"/>
<polygon points="33.71,110.00 47.57,118.00 47.57,134.00 33.71,126.00" fill="#145bcf" stroke="#1a1a1a" stroke-width="1.0" stroke-linejoin="round"/>
<polygon points="33.71,126.00 47.57,134.00 47.57,150.00 33.71,142.00" fill="#0c53c7" stroke="#1a1a1a" stroke-width="1.0" stroke-linejoin="round"/>
<polygon points="47.57,70.00 61.43,78.00 61.43,94.00 47.57,86.00" fill="#2c73e7" stroke="#1a1a1a" stroke-width="1.0" stroke-linejoin="round"/>
<polygon points="47.57,86.00 61.43,94.00 61.43,110.00 47.57,102.00" fill="#246bdf" stroke="#1a1a1a" stroke-width="1.0" stroke-linejoin="round"/>
<polygon points="47.57,102.00 61.43,110.00 61.43,126.00 47.57,118.00" fill="#1c63d7" stroke="#1a1a1a" stroke-width="1.0" stroke-linejoin="round"/>
<polygon points="47.57,118.00 61.43,126.00 61.43,142.00 47.57,134.00" fill="#145bcf" stroke="#1a1a1a" stroke-width="1.0" stroke-linejoin="round"/>
<polygon points="47.57,134.00 61.43,142.00 61.43,158.00 47.57,150.00" fill="#0c53c7" stroke="#1a1a1a" stroke-width="1.0" stroke-linejoin="round"/>
<polygon points="61.43,78.00 75.28,86.00 75.28,102.00 61.43,94.00" fill="#2c73e7" stroke="#1a1a1a" stroke-width="1.0" stroke-linejoin="round"/>
<polygon points="61.43,94.00 75.28,102.00 75.28,118.00 61.43,110.00" fill="#246bdf" stroke="#1a1a1a" stroke-width="1.0" stroke-linejoin="round"/>
<polygon points="61.43,110.00 75.28,118.00 75.28,134.00 61.43,126.00" fill="#1c63d7" stroke="#1a1a1a" stroke-width="1.0" stroke-linejoin="round"/>
<polygon points="61.43,126.00 75.28,134.00 75.28,150.00 61.43,142.00" fill="#145bcf" stroke="#1a1a1a" stroke-width="1.0" stroke-linejoin="round"/>
<polygon points="61.43,142.00 75.28,150.00 75.28,166.00 61.43,158.00" fill="#0c53c7" stroke="#1a1a1a" stroke-width="1.0" stroke-linejoin="round"/>
<polygon points="144.56,46.00 130.71,54.00 130.71,70.00 144.56,62.00" fill="#ea3f3f" stroke="#1a1a1a" stroke-width="1.0" stroke-linejoin="round"/>
<polygon points="144.56,62.00 130.71,70.00 130.71,86.00 144.56,78.00" fill="#e43939" stroke="#1a1a1a" stroke-width="1.0" stroke-linejoin="round"/>
<polygon points="144.56,78.00 130.71,86.00 130.71,102.00 144.56,94.00" fill="#de3333" stroke="#1a1a1a" stroke-width="1.0" stroke-linejoin="round"/>
<polygon points="144.56,94.00 130.71,102.00 130.71,118.00 144.56,110.00" fill="#d82d2d" stroke="#1a1a1a" stroke-width="1.0" stroke-linejoin="round"/>
<polygon points="144.56,110.00 130.71,118.00 130.71,134.00 144.56,126.00" fill="#d22727" stroke="#1a1a1a" stroke-width="1.0" stroke-linejoin="round"/>
<polygon points="130.71,54.00 116.85,62.00 116.85,78.00 130.71,70.00" fill="#ea3f3f" stroke="#1a1a1a" stroke-width="1.0" stroke-linejoin="round"/>
<polygon points="130.71,70.00 116.85,78.00 116.85,94.00 130.71,86.00" fill="#e43939" stroke="#1a1a1a" stroke-width="1.0" stroke-linejoin="round"/>
<polygon points="130.71,86.00 116.85,94.00 116.85,110.00 130.71,102.00" fill="#de3333" stroke="#1a1a1a" stroke-width="1.0" stroke-linejoin="round"/>
<polygon points="130.71,102.00 116.85,110.00 116.85,126.00 130.71,118.00" fill="#d82d2d" stroke="#1a1a1a" stroke-width="1.0" stroke-linejoin="round"/>
<polygon points="130.71,118.00 116.85,126.00 116.85,142.00 130.71,134.00" fill="#d22727" stroke="#1a1a1a" stroke-width="1.0" stroke-linejoin="round"/>
<polygon points="116.85,62.00 102.99,70.00 102.99,86.00 116.85,78.00" fill="#ea3f3f" stroke="#1a1a1a" stroke-width="1.0" stroke-linejoin="round"/>
<polygon points="116.85,78.00 102.99,86.00 102.99,102.00 116.85,94.00" fill="#e43939" stroke="#1a1a1a" stroke-width="1.0" stroke-linejoin="round"/>
<polygon points="116.85,94.00 102.99,102.00 102.99,118.00 116.85,110.00" fill="#de3333" stroke="#1a1a1a" stroke-width="1.0" stroke-linejoin="round"/>
<polygon points="116.85,110.00 102.99,118.00 102.99,134.00 116.85,126.00" fill="#d82d2d" stroke="#1a1a1a" stroke-width="1.0" stroke-linejoin="round"/>
<polygon points="116.85,126.00 102.99,134.00 102.99,150.00 116.85,142.00" fill="#d22727" stroke="#1a1a1a" stroke-width="1.0" stroke-linejoin="round"/>
<polygon points="102.99,70.00 89.14,78.00 89.14,94.00 102.99,86.00" fill="#ea3f3f" stroke="#1a1a1a" stroke-width="1.0" stroke-linejoin="round"/>
<polygon points="102.99,86.00 89.14,94.00 89.14,110.00 102.99,102.00" fill="#e43939" stroke="#1a1a1a" stroke-width="1.0" stroke-linejoin="round"/>
<polygon points="102.99,102.00 89.14,110.00 89.14,126.00 102.99,118.00" fill="#de3333" stroke="#1a1a1a" stroke-width="1.0" stroke-linejoin="round"/>
<polygon points="102.99,118.00 89.14,126.00 89.14,142.00 102.99,134.00" fill="#d82d2d" stroke="#1a1a1a" stroke-width="1.0" stroke-linejoin="round"/>
<polygon points="102.99,134.00 89.14,142.00 89.14,158.00 102.99,150.00" fill="#d22727" stroke="#1a1a1a" stroke-width="1.0" stroke-linejoin="round"/>
<polygon points="89.14,78.00 75.28,86.00 75.28,102.00 89.14,94.00" fill="#ea3f3f" stroke="#1a1a1a" stroke-width="1.0" stroke-linejoin="round"/>
<polygon points="89.14,94.00 75.28,102.00 75.28,118.00 89.14,110.00" fill="#e43939" stroke="#1a1a1a" stroke-width="1.0" stroke-linejoin="round"/>
<polygon points="89.14,110.00 75.28,118.00 75.28,134.00 89.14,126.00" fill="#de3333" stroke="#1a1a1a" stroke-width="1.0" stroke-linejoin="round"/>
<polygon points="89.14,126.00 75.28,134.00 75.28,150.00 89.14,142.00" fill="#d82d2d" stroke="#1a1a1a" stroke-width="1.0" stroke-linejoin="round"/>
<polygon points="89.14,142.00 75.28,150.00 75.28,166.00 89.14,158.00" fill="#d22727" stroke="#1a1a1a" stroke-width="1.0" stroke-linejoin="round"/>
<polygon points="75.28,6.00 89.14,14.00 75.28,22.00 61.43,14.00" fill="#F8F8F2" stroke="#1a1a1a" stroke-width="1.0" stroke-linejoin="round"/>
<polygon points="61.43,14.00 75.28,22.00 61.43,30.00 47.57,22.00" fill="#F8F8F2" stroke="#1a1a1a" stroke-width="1.0" stroke-linejoin="round"/>
<polygon points="47.57,22.00 61.43,30.00 47.57,38.00 33.71,30.00" fill="#F8F8F2" stroke="#1a1a1a" stroke-width="1.0" stroke-linejoin="round"/>
<polygon points="33.71,30.00 47.57,38.00 33.71,46.00 19.86,38.00" fill="#F8F8F2" stroke="#1a1a1a" stroke-width="1.0" stroke-linejoin="round"/>
<polygon points="19.86,38.00 33.71,46.00 19.86,54.00 6.00,46.00" fill="#F8F8F2" stroke="#1a1a1a" stroke-width="1.0" stroke-linejoin="round"/>
<polygon points="89.14,14.00 102.99,22.00 89.14,30.00 75.28,22.00" fill="#F8F8F2" stroke="#1a1a1a" stroke-width="1.0" stroke-linejoin="round"/>
<polygon points="75.28,22.00 89.14,30.00 75.28,38.00 61.43,30.00" fill="#F8F8F2" stroke="#1a1a1a" stroke-width="1.0" stroke-linejoin="round"/>
<polygon points="61.43,30.00 75.28,38.00 61.43,46.00 47.57,38.00" fill="#F8F8F2" stroke="#1a1a1a" stroke-width="1.0" stroke-linejoin="round"/>
<polygon points="47.57,38.00 61.43,46.00 47.57,54.00 33.71,46.00" fill="#F8F8F2" stroke="#1a1a1a" stroke-width="1.0" stroke-linejoin="round"/>
<polygon points="33.71,46.00 47.57,54.00 33.71,62.00 19.86,54.00" fill="#F8F8F2" stroke="#1a1a1a" stroke-width="1.0" stroke-linejoin="round"/>
<polygon points="102.99,22.00 116.85,30.00 102.99,38.00 89.14,30.00" fill="#F8F8F2" stroke="#1a1a1a" stroke-width="1.0" stroke-linejoin="round"/>
<polygon points="89.14,30.00 102.99,38.00 89.14,46.00 75.28,38.00" fill="#F8F8F2" stroke="#1a1a1a" stroke-width="1.0" stroke-linejoin="round"/>
<polygon points="75.28,38.00 89.14,46.00 75.28,54.00 61.43,46.00" fill="#F8F8F2" stroke="#1a1a1a" stroke-width="1.0" stroke-linejoin="round"/>
<polygon points="61.43,46.00 75.28,54.00 61.43,62.00 47.57,54.00" fill="#F8F8F2" stroke="#1a1a1a" stroke-width="1.0" stroke-linejoin="round"/>
<polygon points="47.57,54.00 61.43,62.00 47.57,70.00 33.71,62.00" fill="#F8F8F2" stroke="#1a1a1a" stroke-width="1.0" stroke-linejoin="round"/>
<polygon points="116.85,30.00 130.71,38.00 116.85,46.00 102.99,38.00" fill="#F8F8F2" stroke="#1a1a1a" stroke-width="1.0" stroke-linejoin="round"/>
<polygon points="102.99,38.00 116.85,46.00 102.99,54.00 89.14,46.00" fill="#F8F8F2" stroke="#1a1a1a" stroke-width="1.0" stroke-linejoin="round"/>
<polygon points="89.14,46.00 102.99,54.00 89.14,62.00 75.28,54.00" fill="#F8F8F2" stroke="#1a1a1a" stroke-width="1.0" stroke-linejoin="round"/>
<polygon points="75.28,54.00 89.14,62.00 75.28,70.00 61.43,62.00" fill="#F8F8F2" stroke="#1a1a1a" stroke-width="1.0" stroke-linejoin="round"/>
<polygon points="61.43,62.00 75.28,70.00 61.43,78.00 47.57,70.00" fill="#F8F8F2" stroke="#1a1a1a" stroke-width="1.0" stroke-linejoin="round"/>
<polygon points="130.71,38.00 144.56,46.00 130.71,54.00 116.85,46.00" fill="#F8F8F2" stroke="#1a1a1a" stroke-width="1.0" stroke-linejoin="round"/>
<polygon points="116.85,46.00 130.71,54.00 116.85,62.00 102.99,54.00" fill="#F8F8F2" stroke="#1a1a1a" stroke-width="1.0" stroke-linejoin="round"/>
<polygon points="102.99,54.00 116.85,62.00 102.99,70.00 89.14,62.00" fill="#F8F8F2" stroke="#1a1a1a" stroke-width="1.0" stroke-linejoin="round"/>
<polygon points="89.14,62.00 102.99,70.00 89.14,78.00 75.28,70.00" fill="#F8F8F2" stroke="#1a1a1a" stroke-width="1.0" stroke-linejoin="round"/>
<polygon points="75.28,70.00 89.14,78.00 75.28,86.00 61.43,78.00" fill="#F8F8F2" stroke="#1a1a1a" stroke-width="1.0" stroke-linejoin="round"/>
<line x1="75.28" y1="6.00" x2="144.56" y2="46.00" stroke="#1a1a1a" stroke-width="1.5" stroke-linecap="round"/>
<line x1="144.56" y1="46.00" x2="75.28" y2="86.00" stroke="#1a1a1a" stroke-width="1.5" stroke-linecap="round"/>
<line x1="75.28" y1="6.00" x2="6.00" y2="46.00" stroke="#1a1a1a" stroke-width="1.5" stroke-linecap="round"/>
<line x1="144.56" y1="46.00" x2="144.56" y2="126.00" stroke="#1a1a1a" stroke-width="1.5" stroke-linecap="round"/>
<line x1="6.00" y1="46.00" x2="6.00" y2="126.00" stroke="#1a1a1a" stroke-width="1.5" stroke-linecap="round"/>
<line x1="75.28" y1="86.00" x2="75.28" y2="166.00" stroke="#1a1a1a" stroke-width="1.5" stroke-linecap="round"/>
<line x1="75.28" y1="86.00" x2="6.00" y2="46.00" stroke="#1a1a1a" stroke-width="1.5" stroke-linecap="round"/>
<line x1="144.56" y1="126.00" x2="75.28" y2="166.00" stroke="#1a1a1a" stroke-width="1.5" stroke-linecap="round"/>
<line x1="6.00" y1="126.00" x2="75.28" y2="166.00" stroke="#1a1a1a" stroke-width="1.5" stroke-linecap="round"/>
</svg>