<svg xmlns="http://www.w3.org/2000/svg" width="150.6" height="172.0" viewBox="0 0 150.6 172.0">
<polygon points="6.00,46.00 17.55,52.67 17.55,66.00 6.00,59.33" fill="#2c73e7" stroke="#1a1a1a" stroke-width="0.7000000000000002" stroke-linejoin="round"/>
<polygon points="6.00,59.33 17.55,66.00 17.55,79.33 6.00,72.67" fill="#246bdf" stroke="#1a1a1a" stroke-width="0.7000000000000002" stroke-linejoin="round"/>
<polygon points="6.00,72.67 17.55,79.33 17.55,92.67 6.00,86.00" fill="#1c63d7" stroke="#1a1a1a" stroke-width="0.7000000000000002" stroke-linejoin="round"/>
<polygon points="6.00,86.00 17.55,92.67 17.55,106.00 6.00,99.33" fill="#145bcf" stroke="#1a1a1a" stroke-width="0.7000000000000002" stroke-linejoin="round"/>
<polygon points="6.00,99.33 17.55,106.00 17.55,119.33 6.00,112.67" fill="#0c53c7" stroke="#1a1a1a" stroke-width="0.7000000000000002" stroke-linejoin="round"/>
<polygon points="6.00,112.67 17.55,119.33 17.55,132.67 6.00,126.00" fill="#044bbf" stroke="#1a1a1a" stroke-width="0.7000000000000002" stroke-linejoin="round"/>
<polygon points="17.55,52.67 29.09,59.33 29.09,72.67 17.55,66.00" fill="#2c73e7" stroke="#1a1a1a" stroke-width="0.7000000000000002" stroke-linejoin="round"/>
<polygon points="17.55,66.00 29.09,72.67 29.09,86.00 17.55,79.33" fill="#246bdf" stroke="#1a1a1a" stroke-width="0.7000000000000002" stroke-linejoin="round"/>
<polygon points="17.55,79.33 29.09,86.00 29.09,99.33 17.55,92.67" fill="#1c63d7" stroke="#1a1a1a" stroke-width="0.7000000000000002" stroke-linejoin="round"/>
<polygon points="17.55,92.67 29.09,99.33 29.09,112.67 17.55,106.00" fill="#145bcf" stroke="#1a1a1a" stroke-width="0.7000000000000002" stroke-linejoin="round"/>
<polygon points="17.55,106.00 29.09,112.67 29.09,126.00 17.55,119.33" fill="#0c53c7" stroke="#1a1a1a" stroke-width="0.7000000000000002" stroke-linejoin="round"/>
<polygon points="17.55,119.33 29.09,126.00 29.09,139.33 17.55,132.67" fill="#044bbf" stroke="#1a1a1a" stroke-width="0.7000000000000002" stroke-linejoin="round"/>
<polygon points="29.09,59.33 40.64,66.00 40.64,79.33 29.09,72.67" fill="#2c73e7" stroke="#1a1a1a" stroke-width="0.7000000000000002" stroke-linejoin="round"/>
<polygon points="29.09,72.67 40.64,79.33 40.64,92.67 29.09,86.00" fill="#246bdf" stroke="#1a1a1a" stroke-width="0.7000000000000002" stroke-linejoin="round"/>
<polygon points="29.09,86.00 40.64,92.67 40.64,106.00 29.09,99.33" fill="#1c63d7" stroke="#1a1a1a" stroke-width="0.7000000000000002" stroke-linejoin="round"/>
<polygon points="29.09,99.33 40.64,106.00 40.64,119.33 29.09,112.67" fill="#145bcf" stroke="#1a1a1a" stroke-width="0.7000000000000002" stroke-linejoin="round"/>
<polygon points="29.09,112.67 40.64,119.33 40.64,132.67 29.09,126.00" fill="#0c53c7" stroke="#1a1a1a" stroke-width="0.7000000000000002" stroke-linejoin="round"/>
<polygon points="29.09,126.00 40.64,132.67 40.64,146.00 29.09,139.33" fill="#044bbf" stroke="#1a1a1a" stroke-width="0.7000000000000002" stroke-linejoin="round"/>
<polygon points="40.64,66.00 52.19,72.67 52.19,86.00 40.64,79.33" fill="#2c73e7" stroke="#1a1a1a" stroke-width="0.7000000000000002" stroke-linejoin="round"/>
<polygon points="40.64,79.33 52.19,86.00 52.19,99.33 40.64,92.67" fill="#246bdf" stroke="#1a1a1a" stroke-width="0.7000000000000002" stroke-linejoin="round"/>
<polygon points="40.64,92.67 52.19,99.33 52.19,112.67 40.64,106.00" fill="#1c63d7" stroke="#1a1a1a" stroke-width="0.7000000000000002" stroke-linejoin="round"/>
<polygon points="40.64,106.00 52.19,112.67 52.19,126.00 40.64,119.33" fill="#145bcf" stroke="#1a1a1a" stroke-width="0.7000000000000002" stroke-linejoin="round"/>
<polygon points="40.64,119.33 52.19,126.00 52.19,139.33 40.64,132.67" fill="#0c53c7" stroke="#1a1a1a" stroke-width="0.7000000000000002" stroke-linejoin="round"/>
<polygon points="40.64,132.67 52.19,139.33 52.19,152.67 40.64,146.00" fill="#044bbf" stroke="#1a1a1a" stroke-width="0.7000000000000002" stroke-linejoin="round"/>
<polygon points="52.19,72.67 63.74,79.33 63.74,92.67 52.19,86.00" fill="#2c73e7" stroke="#1a1a1a" stroke-width="0.7000000000000002" stroke-linejoin="round"/>
<polygon points="52.19,86.00 63.74,92.67 63.74,106.00 52.19,99.33" fill="#246bdf" stroke="#1a1a1a" stroke-width="0.7000000000000002" stroke-linejoin="round"/>
<polygon points="52.19,99.33 63.74,106.00 63.74,119.33 52.19,112.67" fill="#1c63d7" stroke="#1a1a1a" stroke-width="0.7000000000000002" stroke-linejoin="round"/>
<polygon points="52.19,112.67 63.74,119.33 63.74,132.67 52.19,126.00" fill="#145bcf" stroke="#1a1a1a" stroke-width="0.7000000000000002" stroke-linejoin="round"/>
<polygon points="52.19,126.00 63.74,132.67 63.74,146.00 52.19,139.33" fill="#0c53c7" stroke="#1a1a1a" stroke-width="0.7000000000000002" stroke-linejoin="round"/>
<polygon points="52.19,139.33 63.74,146.00 63.74,159.33 52.19,152.67" fill="#044bbf" stroke="#1a1a1a" stroke-width="0.7000000000000002" stroke-linejoin="round"/>
<polygon points="63.74,79.33 75.28,86.00 75.28,99.33 63.74,92.67" fill="#2c73e7" stroke="#1a1a1a" stroke-width="0.7000000000000002" stroke-linejoin="round"/>
<polygon points="63.74,92.67 75.28,99.33 75.28,112.67 63.74,106.00" fill="#246bdf" stroke="#1a1a1a" stroke-width="0.7000000000000002" stroke-linejoin="round"/>
<polygon points="63.74,106.00 75.28,112.67 75.28,126.00 63.74,119.33" fill="#1c63d7" stroke="#1a1a1a" stroke-width="0.7000000000000002" stroke-linejoin="round"/>
<polygon points="63.74,119.33 75.28,126.00 75.28,139.33 63.74,132.67" fill="#145bcf" stroke="#1a1a1a" stroke-width="0.7000000000000002" stroke-linejoin="round"/>
<polygon points="63.74,132.67 75.28,139.33 75.28,152.67 63.74,146.00" fill="#0c53c7" stroke="#1a1a1a" stroke-width="0.7000000000000002" stroke-linejoin="round"/>
<polygon points="63.74,146.00 75.28,152.67 75.28,166.00 63.74,159.33" fill="#044bbf" stroke="#1a1a1a" stroke-width="0.7000000000000002" stroke-linejoin="round"/>
<polygon points="144.56,46.00 133.02,52.67 133.02,66.00 144.56,59.33" fill="#ea3f3f" stroke="#1a1a1a" stroke-width="0.7000000000000002" stroke-linejoin="round"/>
<polygon points="144.56,59.33 133.02,66.00 133.02,79.33 144.56,72.67" fill="#e43939" stroke="#1a1a1a" stroke-width="0.7000000000000002" stroke-linejoin="round"/>
<polygon points="144.56,72.67 133.02,79.33 133.02,92.67 144.56,86.00" fill="#de3333" stroke="#1a1a1a" stroke-width="0.7000000000000002" stroke-linejoin="round"/>
<polygon points="144.56,86.00 133.02,92.67 133.02,106.00 144.56,99.33" fill="#d82d2d" stroke="#1a1a1a" stroke-width="0.7000000000000002" stroke-linejoin="round"/>
<polygon points="144.56,99.33 133.02,106.00 133.02,119.33 144.56,112.67" fill="#d22727" stroke="#1a1a1a" stroke-width="0.7000000000000002" stroke-linejoin="round"/>
<polygon points="144.56,112.67 133.02,119.33 133.02,132.67 144.56,126.00" fill="#cc2121" stroke="#1a1a1a" stroke-width="0.7000000000000002" stroke-linejoin="round"/>
<polygon points="133.02,52.67 121.47,59.33 121.47,72.67 133.02,66.00" fill="#ea3f3f" stroke="#1a1a1a" stroke-width="0.7000000000000002" stroke-linejoin="round"/>
<polygon points="133.02,66.00 121.47,72.67 121.47,86.00 133.02,79.33" fill="#e43939" stroke="#1a1a1a" stroke-width="0.7000000000000002" stroke-linejoin="round"/>
<polygon points="133.02,79.33 121.47,86.00 121.47,99.33 133.02,92.67" fill="#de3333" stroke="#1a1a1a" stroke-width="0.7000000000000002" stroke-linejoin="round"/>
<polygon points="133.02,92.67 121.47,99.33 121.47,112.67 133.02,106.00" fill="#d82d2d" stroke="#1a1a1a" stroke-width="0.7000000000000002" stroke-linejoin="round"/>
<polygon points="133.02,106.00 121.47,112.67 121.47,126.00 133.02,119.33" fill="#d22727" stroke="#1a1a1a" stroke-width="0.7000000000000002" stroke-linejoin="round"/>
<polygon points="133.02,119.33 121.47,126.00 121.47,139.33 133.02,132.67" fill="#cc2121" stroke="#1a1a1a" stroke-width="0.7000000000000002" stroke-linejoin="round"/>
<polygon points="121.47,59.33 109.92,66.00 109.92,79.33 121.47,72.67" fill="#ea3f3f" stroke="#1a1a1a" stroke-width="0.7000000000000002" stroke-linejoin="round"/>
<polygon points="121.47,72.67 109.92,79.33 109.92,92.67 121.47,86.00" fill="#e43939" stroke="#1a1a1a" stroke-width="0.7000000000000002" stroke-linejoin="round"/>
<polygon points="121.47,86.00 109.92,92.67 109.92,106.00 121.47,99.33" fill="#de3333" stroke="#1a1a1a" stroke-width="0.7000000000000002" stroke-linejoin="round"/>
<polygon points="121.47,99.33 109.92,106.00 109.92,119.33 121.47,112.67" fill="#d82d2d" stroke="#1a1a1a" stroke-width="0.7000000000000002" stroke-linejoin="round"/>
<polygon points="121.47,112.67 109.92,119.33 109.92,132.67 121.47,126.00" fill="#d22727" stroke="#1a1a1a" stroke-width="0.7000000000000002" stroke-linejoin="round"/>
<polygon points="121.47,126.00 109.92,132.67 109.92,146.00 121.47,139.33" fill="#cc2121" stroke="#1a1a1a" stroke-width="0.7000000000000002" stroke-linejoin="round"/>
<polygon points="109.92,66.00 98.38,72.67 98.38,86.00 109.92,79.33" fill="#ea3f3f" stroke="#1a1a1a" stroke-width="0.7000000000000002" stroke-linejoin="round"/>
<polygon points="109.92,79.33 98.38,86.00 98.38,99.33 109.92,92.67" fill="#e43939" stroke="#1a1a1a" stroke-width="0.7000000000000002" stroke-linejoin="round"/>
<polygon points="109.92,92.67 98.38,99.33 98.38,112.67 109.92,106.00" fill="#de3333" stroke="#1a1a1a" stroke-width="0.7000000000000002" stroke-linejoin="round"/>
<polygon points="109.92,106.00 98.38,112.67 98.38,126.00 109.92,119.33" fill="#d82d2d" stroke="#1a1a1a" stroke-width="0.7000000000000002" stroke-linejoin="round"/>
<polygon points="109.92,119.33 98.38,126.00 98.38,139.33 109.92,132.67" fill="#d22727" stroke="#1a1a1a" stroke-width="0.7000000000000002" stroke-linejoin="round"/>
<polygon points="109.92,132.67 98.38,139.33 98.38,152.67 109.92,146.00" fill="#cc2121" stroke="#1a1a1a" stroke-width="0.7000000000000002" stroke-linejoin="round"/>
<polygon points="98.38,72.67 86.83,79.33 86.83,92.67 98.38,86.00" fill="#ea3f3f" stroke="#1a1a1a" stroke-width="0.7000000000000002" stroke-linejoin="round"/>
<polygon points="98.38,86.00 86.83,92.67 86.83,106.00 98.38,99.33" fill="#e43939" stroke="#1a1a1a" stroke-width="0.7000000000000002" stroke-linejoin="round"/>
<polygon points="98.38,99.33 86.83,106.00 86.83,119.33 98.38,112.67" fill="#de3333" stroke="#1a1a1a" stroke-width="0.7000000000000002" stroke-linejoin="round"/>
<polygon points="98.38,112.67 86.83,119.33 86.83,132.67 98.38,126.00" fill="#d82d2d" stroke="#1a1a1a" stroke-width="0.7000000000000002" stroke-linejoin="round"/>
<polygon points="98.38,126.00 86.83,132.67 86.83,146.00 98.38,139.33" fill="#d22727" stroke="#1a1a1a" stroke-width="0.7000000000000002" stroke-linejoin="round"/>
<polygon points="98.38,139.33 86.83,146.00 86.83,159.33 98.38,152.67" fill="#cc2121" stroke="#1a1a1a" stroke-width="0.7000000000000002" stroke-linejoin="round"/>
<polygon points="86.83,79.33 75.28,86.00 75.28,99.33 86.83,92.67" fill="#ea3f3f" stroke="#1a1a1a" stroke-width="0.7000000000000002" stroke-linejoin="round"/>
<polygon points="86.83,92.67 75.28,99.33 75.28,112.67 86.83,106.00" fill="#e43939" stroke="#1a1a1a" stroke-width="0.7000000000000002" stroke-linejoin="round"/>
<polygon points="86.83,106.00 75.28,112.67 75.28,126.00 86.83,119.33" fill="#de3333" stroke="#1a1a1a" stroke-width="0.7000000000000002" stroke-linejoin="round"/>
<polygon points="86.83,119.33 75.28,126.00 75.28,139.33 86.83,132.67" fill="#d82d2d" stroke="#1a1a1a" stroke-width="0.7000000000000002" stroke-linejoin="round"/>
<polygon points="86.83,132.67 75.28,139.33 75.28,152.67 86.83,146.00" fill="#d22727" stroke="#1a1a1a" stroke-width="0.7000000000000002" stroke-linejoin="round"/>
<polygon points="86.83,146.00 75.28,152.67 75.28,166.00 86.83,159.33" fill="#cc2121" stroke="#1a1a1a" stroke-width="0.7000000000000002" stroke-linejoin="round"/>
<polygon points="75.28,6.00 86.83,12.67 75.28,19.33 63.74,12.67" fill="#F8F8F2" stroke="#1a1a1a" stroke-width="0.7000000000000002" stroke-linejoin="round"/>
<polygon points="63.74,12.67 75.28,19.33 63.74,26.00 52.19,19.33" fill="#F8F8F2" stroke="#1a1a1a" stroke-width="0.7000000000000002" stroke-linejoin="round"/>
<polygon points="52.19,19.33 63.74,26.00 52.19,32.67 40.64,26.00" fill="#F8F8F2" stroke="#1a1a1a" stroke-width="0.7000000000000002" stroke-linejoin="round"/>
<polygon points="40.64,26.00 52.19,32.67 40.64,39.33 29.09,32.67" fill="#F8F8F2" stroke="#1a1a1a" stroke-width="0.7000000000000002" stroke-linejoin="round"/>
<polygon points="29.09,32.67 40.64,39.33 29.09,46.00 17.55,39.33" fill="#F8F8F2" stroke="#1a1a1a" stroke-width="0.7000000000000002" stroke-linejoin="round"/>
<polygon points="17.55,39.33 29.09,46.00 17.55,52.67 6.00,46.00" fill="#F8F8F2" stroke="#1a1a1a" stroke-width="0.7000000000000002" stroke-linejoin="round"/>
<polygon points="86.83,12.67 98.38,19.33 86.83,26.00 75.28,19.33" fill="#F8F8F2" stroke="#1a1a1a" stroke-width="0.7000000000000002" stroke-linejoin="round"/>
<polygon points="75.28,19.33 86.83,26.00 75.28,32.67 63.74,26.00" fill="#F8F8F2" stroke="#1a1a1a" stroke-width="0.7000000000000002" stroke-linejoin="round"/>
<polygon points="63.74,26.00 75.28,32.67 63.74,39.33 52.19,32.67" fill="#F8F8F2" stroke="#1a1a1a" stroke-width="0.7000000000000002" stroke-linejoin="round"/>
<polygon points="52.19,32.67 63.74,39.33 52.19,46.00 40.64,39.33" fill="#F8F8F2" stroke="#1a1a1a" stroke-width="0.7000000000000002" stroke-linejoin="round"/>
<polygon points="40.64,39.33 52.19,46.00 40.64,52.67 29.09,46.00" fill="#F8F8F2" stroke="#1a1a1a" stroke-width="0.7000000000000002" stroke-linejoin="round"/>
<polygon points="29.09,46.00 40.64,52.67 29.09,59.33 17.55,52.67" fill="#F8F8F2" stroke="#1a1a1a" stroke-width="0.7000000000000002" stroke-linejoin="round"/>
<polygon points="98.38,19.33 109.92,26.00 98.38,32.67 86.83,26.00" fill="#F8F8F2" stroke="#1a1a1a" stroke-width="0.7000000000000002" stroke-linejoin="round"/>
<polygon points="86.83,26.00 98.38,32.67 86.83,39.33 75.28,32.67" fill="#F8F8F2" stroke="#1a1a1a" stroke-width="0.7000000000000002" stroke-linejoin="round"/>
<polygon points="75.28,32.67 86.83,39.33 75.28,46.00 63.74,39.33" fill="#F8F8F2" stroke="#1a1a1a" stroke-width="0.7000000000000002" stroke-linejoin="round"/>
<polygon points="63.74,39.33 75.28,46.00 63.74,52.67 52.19,46.00" fill="#F8F8F2" stroke="#1a1a1a" stroke-width="0.7000000000000002" stroke-linejoin="round"/>
<polygon points="52.19,46.00 63.74,52.67 52.19,59.33 40.64,52.67" fill="#F8F8F2" stroke="#1a1a1a" stroke-width="0.7000000000000002" stroke-linejoin="round"/>
<polygon points="40.64,52.67 52.19,59.33 40.64,66.00 29.09,59.33" fill="#F8F8F2" stroke="#1a1a1a" stroke-width="0.7000000000000002" stroke-linejoin="round"/>
<polygon points="109.92,26.00 121.47,32.67 109.92,39.33 98.38,32.67" fill="#F8F8F2" stroke="#1a1a1a" stroke-width="0.7000000000000002" stroke-linejoin="round"/>
<polygon points="98.38,32.67 109.92,39.33 98.38,46.00 86.83,39.33" fill="#F8F8F2" stroke="#1a1a1a" stroke-width="0.7000000000000002" stroke-linejoin="round"/>
<polygon points="86.83,39.33 98.38,46.00 86.83,52.67 75.28,46.00" fill="#F8F8F2" stroke="#1a1a1a" stroke-width="0.7000000000000002" stroke-linejoin="round"/>
<polygon points="75.28,46.00 86.83,52.67 75.28,59.33 63.74,52.67" fill="#F8F8F2" stroke="#1a1a1a" stroke-width="0.7000000000000002" stroke-linejoin="round"/>
<polygon points="63.74,52.67 75.28,59.33 63.74,66.00 52.19,59.33" fill="#F8F8F2" stroke="#1a1a1a" stroke-width="0.7000000000000002" stroke-linejoin="round"/>
<polygon points="52.19,59.33 63.74,66.00 52.19,72.67 40.64,66.00" fill="#F8F8F2" stroke="#1a1a1a" stroke-width="0.7000000000000002" stroke-linejoin="round"/>
<polygon points="121.47,32.67 133.02,39.33 121.47,46.00 109.92,39.33" fill="#F8F8F2" stroke="#1a1a1a" stroke-width="0.7000000000000002" stroke-linejoin="round"/>
<polygon points="109.92,39.33 121.47,46.00 109.92,52.67 98.38,46.00" fill="#F8F8F2" stroke="#1a1a1a" stroke-width="0.7000000000000002" stroke-linejoin="round"/>
<polygon points="98.38,46.00 109.92,52.67 98.38,59.33 86.83,52.67" fill="#F8F8F2" stroke="#1a1a1a" stroke-width="0.7000000000000002" stroke-linejoin="round"/>
<polygon points="86.83,52.67 98.38,59.33 86.83,66.00 75.28,59.33" fill="#F8F8F2" stroke="#1a1a1a" stroke-width="0.7000000000000002" stroke-linejoin="round"/>
<polygon points="75.28,59.33 86.83,66.00 75.28,72.67 63.74,66.00" fill="#F8F8F2" stroke="#1a1a1a" stroke-width="0.7000000000000002" stroke-linejoin="round"/>
<polygon points="63.74,66.00 75.28,72.67 63.74,79.33 52.19,72.67" fill="#F8F8F2" stroke="#1a1a1a" stroke-width="0.7000000000000002" stroke-linejoin="round"/>
<polygon points="133.02,39.33 144.56,46.00 133.02,52.67 121.47,46.00" fill="#F8F8F2" stroke="#1a1a1a" stroke-width="0.7000000000000002" stroke-linejoin="round"/>
<polygon points="121.47,46.00 133.02,52.67 121.47,59.33 109.92,52.67" fill="#F8F8F2" stroke="#1a1a1a" stroke-width="0.7000000000000002" stroke-linejoin="round"/>
<polygon points="109.92,52.67 121.47,59.33 109.92,66.00 98.38,59.33" fill="#F8F8F2" stroke="#1a1a1a" stroke-width="0.7000000000000002" stroke-linejoin="round"/>
<polygon points="98.38,59.33 109.92,66.00 98.38,72.67 86.83,66.00" fill="#F8F8F2" stroke="#1a1a1a" stroke-width="0.7000000000000002" stroke-linejoin="round"/>
<polygon points="86.83,66.00 98.38,72.67 86.83,79.33 75.28,72.67" fill="#F8F8F2" stroke="#1a1a1a" stroke-width="0.7000000000000002" stroke-linejoin="round"/>
<polygon points="75.28,72.67 86.83,79.33 75.28,86.00 63.74,79.33" fill="#F8F8F2" stroke="#1a1a1a" stroke-width="0.7000000000000002" stroke-linejoin="round"/>
<line x1="75.28" y1="6.00" x2="144.56" y2="46.00" stroke="#1a1a1a" stroke-width="1.2999999999999998" stroke-linecap="round"/>
<line x1="144.56" y1="46.00" x2="75.28" y2="86.00" stroke="#1a1a1a" stroke-width="1.2999999999999998" stroke-linecap="round"/>
<line x1="75.28" y1="6.00" x2="6.00" y2="46.00" stroke="#1a1a1a" stroke-width="1.2999999999999998" stroke-linecap="round"/>
<line x1="144.56" y1="46.00" x2="144.56" y2="126.00" stroke="#1a1a1a" stroke-width="1.2999999999999998" stroke-linecap="round"/>
<line x1="6.00" y1="46.00" x2="6.00" y2="126.00" stroke="#1a1a1a" stroke-width="1.2999999999999998" stroke-linecap="round"/>
<line x1="75.28" y1="86.00" x2="75.28" y2="166.00" stroke="#1a1a1a" stroke-width="1.2999999999999998" stroke-linecap="round"/>
<line x1="75.28" y1="86.00" x2="6.00" y2="46.00" stroke="#1a1a1a" stroke-width="1.2999999999999998" stroke-linecap="round"/>
<line x1="144.56" y1="126.00" x2="75.28" y2="166.00" stroke="#1a1a1a" stroke-width="1.2999999999999998" stroke-linecap="round"/>
<line x1="6.00" y1="126.00" x2="75.28" y2="166.00" stroke="#1a1a1a" stroke-width="1.2999999999999998" stroke-linecap="round"/>
</svg>